<svg viewBox="-213.86249999999995 123.42168674698792 1710.8999999999999 1471.566265060241" fill="none" xmlns="http://www.w3.org/2000/svg" xmlns:xlink="http://www.w3.org/1999/xlink" overflow="visible" width="1710.8999999999999px" height="1471.566265060241px"><g id="Master/Compositions/Doctor Prescription"><g id="Background Elements Medicine" transform="translate(473 214) scale(1 1)"><g id="Background Elements Medicine/Stethoscope"><g id="Stethoscope"><path id="Combined Shape" fill-rule="evenodd" clip-rule="evenodd" d="M822.459 7.95518C819.605 7.83434 816.736 7.77332 813.852 7.77332H732.028H644.166C641.018 7.77332 637.872 7.84761 634.729 7.99605V57.4582C637.87 57.2611 641.017 57.1624 644.166 57.1624H733.404H813.852C816.741 57.1624 819.61 57.2437 822.459 57.4041V7.95518ZM633.729 57.5243C631.689 57.6659 629.651 57.8492 627.617 58.0739C544.837 67.2206 485.14 141.793 494.28 224.635L532.301 569.261C540.738 645.733 605.309 703.611 682.187 703.611H732.116H775.831C852.709 703.611 917.279 645.733 925.716 569.261L963.738 224.635C964.344 219.135 964.648 213.607 964.648 208.074C964.648 127.957 902.265 62.4221 823.459 57.4637V8C929.536 13.0168 1014 100.674 1014 208.074C1014 215.417 1013.6 222.756 1012.79 230.055L974.77 574.681C963.572 676.18 877.869 753 775.831 753H729.009H682.187C580.149 753 494.446 676.18 483.248 574.681L445.226 230.055C433.096 120.101 512.33 21.1232 622.201 8.98313C626.034 8.55952 629.879 8.24698 633.729 8.04579V57.5243Z" fill="white"/><path id="Combined Shape Copy" fill-rule="evenodd" clip-rule="evenodd" d="M820.459 4.85474L823.6 5.00332C931.634 10.1125 1017 99.4283 1017 208.074C1017 214.954 1016.65 221.829 1015.95 228.686L1015.77 230.384L977.752 575.01C966.511 676.896 881.235 754.437 778.909 755.977L775.831 756H682.187C579.758 756 493.386 679.684 480.627 578.07L480.266 575.01L442.244 230.384C429.932 118.783 510.353 18.3234 621.871 6.00126C625.762 5.57135 629.664 5.25409 633.573 5.04985L636.73 4.88491L636.729 60.3232L633.937 60.5171C631.937 60.6559 629.939 60.8355 627.946 61.0558C547.719 69.9204 489.467 141.56 497.011 221.847L497.262 224.306L535.283 568.932C543.461 643.06 605.503 699.473 679.907 700.594L682.187 700.611H775.831C850.35 700.611 913.189 645.088 922.467 571.198L922.734 568.932L960.756 224.306C961.35 218.916 961.648 213.497 961.648 208.074C961.648 129.893 900.849 65.3392 823.271 60.4578L820.459 60.2809L820.459 4.85474ZM829.58 11.3917L826.458 11.169L826.459 54.674L828.471 54.8486C906.088 62.1668 966.407 127.006 967.629 205.637L967.648 208.074C967.648 213.716 967.338 219.355 966.719 224.964L928.696 569.613L928.423 571.924C918.766 648.835 853.376 706.611 775.831 706.611L682.164 706.611L679.839 706.593C602.389 705.427 537.829 646.724 529.319 569.59L491.295 224.94L491.039 222.433C483.187 138.863 543.802 64.3166 627.287 55.0921C628.324 54.9775 629.362 54.8734 630.401 54.78L630.729 54.752V11.234L630.095 11.2764C628.201 11.4121 626.309 11.5751 624.419 11.7655L622.53 11.965C514.306 23.9231 436.259 121.418 448.208 229.726L486.227 574.33L486.583 577.345C498.962 675.937 582.784 750 682.187 750L775.808 750L778.842 749.977C878.12 748.483 960.879 673.232 971.788 574.352L1009.81 229.739L1009.99 228.066C1010.66 221.424 1011 214.751 1011 208.074C1011 104.743 931.434 19.4293 829.58 11.3917Z" fill="black"/><circle id="Oval" cx="633.5" cy="36.5" r="36.5" fill="black"/><circle id="Oval Copy 24" cx="829.5" cy="36.5" r="36.5" fill="black"/><path id="Rectangle" fill-rule="evenodd" clip-rule="evenodd" d="M673 704H772L755.8 831.456C753.798 847.2 740.403 859 724.533 859V859C709.035 859 695.837 847.733 693.405 832.427L673 704Z" fill="black"/><path id="Path 9" d="M709.02 792H738.927L738.926 1246.31C738.016 1304.33 773.601 1332.14 853.167 1332.14C911.124 1332.14 940.462 1314.63 956.189 1273.79C963.73 1254.2 968.443 1228.67 971.07 1194.47L971.29 1191.52C973.458 1161.55 974.092 1128.62 974.092 1069.54C974.092 1008.72 966.541 963.926 951.99 935.502C938.865 909.865 920.656 898.272 895.39 898.939L894.622 898.963L893.545 869.125C931.187 867.771 960.224 885.98 978.621 921.914C995.724 955.321 1004 1004.42 1004 1069.54L1003.99 1083.39C1003.89 1133.53 1003.21 1163.89 1001.25 1191.81L1001.12 1193.67C998.347 1232.03 993.102 1261.14 984.106 1284.5C963.645 1337.64 922.828 1362 853.167 1362C759.312 1362 708.835 1323.28 709.001 1248.13L709.02 1246.08V792Z" fill="black"/><rect id="Rectangle_2" x="852" y="835" width="49" height="102" fill="black"/><path id="Rectangle_3" fill-rule="evenodd" clip-rule="evenodd" d="M812 770L853 837.473V939.527L812 1007V770Z" fill="white"/><path id="Rectangle Copy 3" fill-rule="evenodd" clip-rule="evenodd" d="M809 1007V770C809 766.966 812.988 765.849 814.564 768.442L855.564 835.915C855.849 836.385 856 836.924 856 837.473V939.527C856 940.076 855.849 940.615 855.564 941.084L814.564 1008.56C812.988 1011.15 809 1010.03 809 1007ZM850 838.313L815 780.714V996.285L850 938.686V838.313Z" fill="black"/></g><g id="Group-Copy"><g id="Medicine-1"><g id="Rectangle_4"><path id="Vector" d="M625.5 1015H402.5V1073H625.5V1015Z" fill="white"/></g><g id="Rectangle-Copy-5"><path id="Vector_2" d="M628.5 1012H399.5V1076H628.5V1012ZM622.5 1018V1070H405.5V1018H622.5Z" fill="black"/></g><g id="Rectangle_5"><path id="Vector_3" d="M608 1050.5H419C395.804 1050.5 377 1069.3 377 1092.5V1320.5C377 1343.7 395.804 1362.5 419 1362.5H608C631.196 1362.5 650 1343.7 650 1320.5V1092.5C650 1069.3 631.196 1050.5 608 1050.5Z" fill="white"/><path id="Vector_4" d="M608 1364H419C407.466 1363.99 396.408 1359.4 388.253 1351.25C380.097 1343.09 375.511 1332.03 375.5 1320.5V1092.5C375.511 1080.97 380.097 1069.91 388.253 1061.75C396.408 1053.6 407.466 1049.01 419 1049H608C619.534 1049.01 630.592 1053.6 638.747 1061.75C646.903 1069.91 651.489 1080.97 651.5 1092.5V1320.5C651.489 1332.03 646.903 1343.09 638.747 1351.25C630.592 1359.4 619.534 1363.99 608 1364ZM419 1052C408.263 1052.01 397.969 1056.28 390.377 1063.88C382.784 1071.47 378.513 1081.76 378.5 1092.5V1320.5C378.513 1331.24 382.784 1341.53 390.377 1349.12C397.969 1356.72 408.263 1360.99 419 1361H608C618.737 1360.99 629.031 1356.72 636.623 1349.12C644.216 1341.53 648.487 1331.24 648.5 1320.5V1092.5C648.487 1081.76 644.216 1071.47 636.623 1063.88C629.031 1056.28 618.737 1052.01 608 1052H419Z" fill="black"/></g><g id="Rectangle-Copy-6"><path id="Vector_5" d="M609.5 1049C620.639 1049 631.322 1053.42 639.198 1061.3C647.075 1069.18 651.5 1079.86 651.5 1091V1322C651.5 1333.14 647.075 1343.82 639.198 1351.7C631.322 1359.58 620.639 1364 609.5 1364H417.5C411.984 1364 406.523 1362.91 401.427 1360.8C396.332 1358.69 391.702 1355.6 387.802 1351.7C383.901 1347.8 380.808 1343.17 378.697 1338.07C376.586 1332.98 375.5 1327.52 375.5 1322V1091C375.5 1079.86 379.925 1069.18 387.802 1061.3C395.678 1053.42 406.361 1049 417.5 1049H609.5ZM609.5 1055H417.5C408.055 1055 398.988 1058.71 392.254 1065.33C385.52 1071.95 381.657 1080.96 381.5 1090.4V1322C381.499 1331.44 385.209 1340.51 391.831 1347.25C398.453 1353.98 407.457 1357.84 416.9 1358H609.5C618.945 1358 628.012 1354.29 634.746 1347.67C641.48 1341.05 645.343 1332.04 645.5 1322.6V1091C645.501 1081.56 641.791 1072.49 635.169 1065.75C628.547 1059.02 619.543 1055.16 610.1 1055H609.5Z" fill="black"/></g><g id="Rectangle_6"><path id="Vector_6" d="M651.5 945H375.5V1032H651.5V945Z" fill="white"/></g><g id="Rectangle-Copy-4"><path id="Vector_7" d="M654.5 942H372.5V1035H654.5V942ZM648.5 948V1029H378.5V948H648.5Z" fill="black"/></g><g id="Rectangle_7"><path id="Vector_8" d="M649.5 1133H378.5V1300H649.5V1133Z" fill="white"/></g><g id="Rectangle-Copy"><path id="Vector_9" d="M652.5 1130H375.5V1303H652.5V1130ZM646.5 1136V1297H381.5V1136H646.5Z" fill="black"/></g><g id="Rectangle-Copy-2"><path id="Vector_10" d="M651 1131.5H377V1301.5H651V1131.5ZM648 1134.5V1298.5H380V1134.5H648Z" fill="black"/></g></g><g id="Pill"><g id="Rectangle_8"><path id="Vector_11" fill-rule="evenodd" clip-rule="evenodd" d="M663.5 1277H742.5C754.036 1277 765.099 1281.59 773.256 1289.74C781.413 1297.9 785.997 1308.96 786 1320.5V1320.5C785.997 1332.04 781.413 1343.1 773.256 1351.26C765.099 1359.41 754.036 1364 742.5 1364H663.5C651.964 1364 640.901 1359.41 632.744 1351.26C624.587 1343.1 620.003 1332.04 620 1320.5V1320.5C620.003 1308.96 624.587 1297.9 632.744 1289.74C640.901 1281.59 651.964 1277 663.5 1277V1277Z" fill="white"/><path id="Vector_12" d="M742.5 1367H663.5C651.167 1367 639.34 1362.1 630.62 1353.38C621.899 1344.66 617 1332.83 617 1320.5C617 1308.17 621.899 1296.34 630.62 1287.62C639.34 1278.9 651.167 1274 663.5 1274H742.5C754.833 1274 766.66 1278.9 775.38 1287.62C784.101 1296.34 789 1308.17 789 1320.5C789 1332.83 784.101 1344.66 775.38 1353.38C766.66 1362.1 754.833 1367 742.5 1367V1367ZM663.5 1280C652.759 1280 642.457 1284.27 634.862 1291.86C627.267 1299.46 623 1309.76 623 1320.5C623 1331.24 627.267 1341.54 634.862 1349.14C642.457 1356.73 652.759 1361 663.5 1361H742.5C753.241 1361 763.543 1356.73 771.138 1349.14C778.733 1341.54 783 1331.24 783 1320.5C783 1309.76 778.733 1299.46 771.138 1291.86C763.543 1284.27 753.241 1280 742.5 1280H663.5Z" fill="black"/></g><g id="Rectangle-Copy-7"><path id="Vector_13" fill-rule="evenodd" clip-rule="evenodd" d="M663.5 1277H742.5C754.036 1277 765.099 1281.59 773.256 1289.74C781.413 1297.9 785.997 1308.96 786 1320.5V1320.5C785.997 1332.04 781.413 1343.1 773.256 1351.26C765.099 1359.41 754.036 1364 742.5 1364H663.5C651.964 1364 640.901 1359.41 632.744 1351.26C624.587 1343.1 620.003 1332.04 620 1320.5V1320.5C620.003 1308.96 624.587 1297.9 632.744 1289.74C640.901 1281.59 651.964 1277 663.5 1277V1277Z" fill="white"/><path id="Vector_14" d="M742.5 1367H663.5C651.167 1367 639.34 1362.1 630.62 1353.38C621.899 1344.66 617 1332.83 617 1320.5C617 1308.17 621.899 1296.34 630.62 1287.62C639.34 1278.9 651.167 1274 663.5 1274H742.5C754.833 1274 766.66 1278.9 775.38 1287.62C784.101 1296.34 789 1308.17 789 1320.5C789 1332.83 784.101 1344.66 775.38 1353.38C766.66 1362.1 754.833 1367 742.5 1367V1367ZM663.5 1280C652.759 1280 642.457 1284.27 634.862 1291.86C627.267 1299.46 623 1309.76 623 1320.5C623 1331.24 627.267 1341.54 634.862 1349.14C642.457 1356.73 652.759 1361 663.5 1361H742.5C753.241 1361 763.543 1356.73 771.138 1349.14C778.733 1341.54 783 1331.24 783 1320.5C783 1309.76 778.733 1299.46 771.138 1291.86C763.543 1284.27 753.241 1280 742.5 1280H663.5Z" fill="black"/></g><g id="Rectangle-Copy-9"><path id="Vector_15" d="M742.5 1274H663.5C651.167 1274 639.34 1278.9 630.62 1287.62C621.899 1296.34 617 1308.17 617 1320.5C617 1332.83 621.899 1344.66 630.62 1353.38C639.34 1362.1 651.167 1367 663.5 1367H742.5C754.833 1367 766.66 1362.1 775.38 1353.38C784.101 1344.66 789 1332.83 789 1320.5C789 1308.17 784.101 1296.34 775.38 1287.62C766.66 1278.9 754.833 1274 742.5 1274ZM663.5 1280H742.5C753.241 1280 763.543 1284.27 771.138 1291.86C778.733 1299.46 783 1309.76 783 1320.5C783 1331.24 778.733 1341.54 771.138 1349.14C763.543 1356.73 753.241 1361 742.5 1361H663.5C652.759 1361 642.457 1356.73 634.862 1349.14C627.267 1341.54 623 1331.24 623 1320.5C623 1309.76 627.267 1299.46 634.862 1291.86C642.457 1284.27 652.759 1280 663.5 1280V1280Z" fill="black"/></g><g id="Combined-Shape"><path id="Vector_16" fill-rule="evenodd" clip-rule="evenodd" d="M703 1277V1364H663.5C651.963 1364 640.899 1359.42 632.741 1351.26C624.583 1343.1 620 1332.04 620 1320.5C620 1308.96 624.583 1297.9 632.741 1289.74C640.899 1281.58 651.963 1277 663.5 1277H703Z" fill="black"/></g></g><g id="Pill-2"><g id="Rectangle_9"><path id="Vector_17" fill-rule="evenodd" clip-rule="evenodd" d="M545.5 1277H624.5C636.036 1277 647.099 1281.59 655.256 1289.74C663.413 1297.9 667.997 1308.96 668 1320.5V1320.5C667.997 1332.04 663.413 1343.1 655.256 1351.26C647.099 1359.41 636.036 1364 624.5 1364H545.5C533.964 1364 522.901 1359.41 514.744 1351.26C506.587 1343.1 502.003 1332.04 502 1320.5V1320.5C502.003 1308.96 506.587 1297.9 514.744 1289.74C522.901 1281.59 533.964 1277 545.5 1277V1277Z" fill="white"/><path id="Vector_18" d="M624.5 1367H545.5C533.167 1367 521.34 1362.1 512.62 1353.38C503.899 1344.66 499 1332.83 499 1320.5C499 1308.17 503.899 1296.34 512.62 1287.62C521.34 1278.9 533.167 1274 545.5 1274H624.5C636.833 1274 648.66 1278.9 657.38 1287.62C666.101 1296.34 671 1308.17 671 1320.5C671 1332.83 666.101 1344.66 657.38 1353.38C648.66 1362.1 636.833 1367 624.5 1367V1367ZM545.5 1280C534.759 1280 524.457 1284.27 516.862 1291.86C509.267 1299.46 505 1309.76 505 1320.5C505 1331.24 509.267 1341.54 516.862 1349.14C524.457 1356.73 534.759 1361 545.5 1361H624.5C635.241 1361 645.543 1356.73 653.138 1349.14C660.733 1341.54 665 1331.24 665 1320.5C665 1309.76 660.733 1299.46 653.138 1291.86C645.543 1284.27 635.241 1280 624.5 1280H545.5Z" fill="black"/></g><g id="Rectangle-Copy-8"><path id="Vector_19" fill-rule="evenodd" clip-rule="evenodd" d="M545.5 1277H624.5C636.036 1277 647.099 1281.59 655.256 1289.74C663.413 1297.9 667.997 1308.96 668 1320.5V1320.5C667.997 1332.04 663.413 1343.1 655.256 1351.26C647.099 1359.41 636.036 1364 624.5 1364H545.5C533.964 1364 522.901 1359.41 514.744 1351.26C506.587 1343.1 502.003 1332.04 502 1320.5V1320.5C502.003 1308.96 506.587 1297.9 514.744 1289.74C522.901 1281.59 533.964 1277 545.5 1277V1277Z" fill="white"/><path id="Vector_20" d="M624.5 1367H545.5C533.167 1367 521.34 1362.1 512.62 1353.38C503.899 1344.66 499 1332.83 499 1320.5C499 1308.17 503.899 1296.34 512.62 1287.62C521.34 1278.9 533.167 1274 545.5 1274H624.5C636.833 1274 648.66 1278.9 657.38 1287.62C666.101 1296.34 671 1308.17 671 1320.5C671 1332.83 666.101 1344.66 657.38 1353.38C648.66 1362.1 636.833 1367 624.5 1367V1367ZM545.5 1280C534.759 1280 524.457 1284.27 516.862 1291.86C509.267 1299.46 505 1309.76 505 1320.5C505 1331.24 509.267 1341.54 516.862 1349.14C524.457 1356.73 534.759 1361 545.5 1361H624.5C635.241 1361 645.543 1356.73 653.138 1349.14C660.733 1341.54 665 1331.24 665 1320.5C665 1309.76 660.733 1299.46 653.138 1291.86C645.543 1284.27 635.241 1280 624.5 1280H545.5Z" fill="black"/></g><g id="Rectangle-Copy-10"><path id="Vector_21" d="M624.5 1274H545.5C533.167 1274 521.34 1278.9 512.62 1287.62C503.899 1296.34 499 1308.17 499 1320.5C499 1332.83 503.899 1344.66 512.62 1353.38C521.34 1362.1 533.167 1367 545.5 1367H624.5C636.833 1367 648.66 1362.1 657.38 1353.38C666.101 1344.66 671 1332.83 671 1320.5C671 1308.17 666.101 1296.34 657.38 1287.62C648.66 1278.9 636.833 1274 624.5 1274ZM545.5 1280H624.5C635.241 1280 645.543 1284.27 653.138 1291.86C660.733 1299.46 665 1309.76 665 1320.5C665 1331.24 660.733 1341.54 653.138 1349.14C645.543 1356.73 635.241 1361 624.5 1361H545.5C534.759 1361 524.457 1356.73 516.862 1349.14C509.267 1341.54 505 1331.24 505 1320.5C505 1309.76 509.267 1299.46 516.862 1291.86C524.457 1284.27 534.759 1280 545.5 1280V1280Z" fill="black"/></g><g id="Combined-Shape_2"><path id="Vector_22" fill-rule="evenodd" clip-rule="evenodd" d="M585 1277V1364H545.5C533.963 1364 522.899 1359.42 514.741 1351.26C506.583 1343.1 502 1332.04 502 1320.5C502 1308.96 506.583 1297.9 514.741 1289.74C522.899 1281.58 533.963 1277 545.5 1277H585Z" fill="black"/></g></g><g id="Pill-3"><g id="Rectangle_10"><path id="Vector_23" fill-rule="evenodd" clip-rule="evenodd" d="M278.5 1277H199.5C187.964 1277 176.901 1281.59 168.744 1289.74C160.587 1297.9 156.003 1308.96 156 1320.5V1320.5C156.003 1332.04 160.587 1343.1 168.744 1351.26C176.901 1359.41 187.964 1364 199.5 1364H278.5C290.036 1364 301.099 1359.41 309.256 1351.26C317.413 1343.1 321.997 1332.04 322 1320.5V1320.5C321.997 1308.96 317.413 1297.9 309.256 1289.74C301.099 1281.59 290.036 1277 278.5 1277V1277Z" fill="white"/><path id="Vector_24" d="M278.5 1367H199.5C187.167 1367 175.34 1362.1 166.62 1353.38C157.899 1344.66 153 1332.83 153 1320.5C153 1308.17 157.899 1296.34 166.62 1287.62C175.34 1278.9 187.167 1274 199.5 1274H278.5C290.833 1274 302.66 1278.9 311.38 1287.62C320.101 1296.34 325 1308.17 325 1320.5C325 1332.83 320.101 1344.66 311.38 1353.38C302.66 1362.1 290.833 1367 278.5 1367V1367ZM199.5 1280C188.759 1280 178.457 1284.27 170.862 1291.86C163.267 1299.46 159 1309.76 159 1320.5C159 1331.24 163.267 1341.54 170.862 1349.14C178.457 1356.73 188.759 1361 199.5 1361H278.5C289.241 1361 299.543 1356.73 307.138 1349.14C314.733 1341.54 319 1331.24 319 1320.5C319 1309.76 314.733 1299.46 307.138 1291.86C299.543 1284.27 289.241 1280 278.5 1280H199.5Z" fill="black"/></g><g id="Rectangle-Copy-11"><path id="Vector_25" d="M199.5 1274H278.5C290.833 1274 302.66 1278.9 311.38 1287.62C320.101 1296.34 325 1308.17 325 1320.5C325 1332.83 320.101 1344.66 311.38 1353.38C302.66 1362.1 290.833 1367 278.5 1367H199.5C187.167 1367 175.34 1362.1 166.62 1353.38C157.899 1344.66 153 1332.83 153 1320.5C153 1308.17 157.899 1296.34 166.62 1287.62C175.34 1278.9 187.167 1274 199.5 1274V1274ZM278.5 1280H199.5C188.759 1280 178.457 1284.27 170.862 1291.86C163.267 1299.46 159 1309.76 159 1320.5C159 1331.24 163.267 1341.54 170.862 1349.14C178.457 1356.73 188.759 1361 199.5 1361H278.5C289.241 1361 299.543 1356.73 307.138 1349.14C314.733 1341.54 319 1331.24 319 1320.5C319 1309.76 314.733 1299.46 307.138 1291.86C299.543 1284.27 289.241 1280 278.5 1280V1280Z" fill="black"/></g><g id="Combined-Shape_3"><path id="Vector_26" fill-rule="evenodd" clip-rule="evenodd" d="M239 1277V1364H278.5C290.037 1364 301.101 1359.42 309.259 1351.26C317.417 1343.1 322 1332.04 322 1320.5C322 1308.96 317.417 1297.9 309.259 1289.74C301.101 1281.58 290.037 1277 278.5 1277H239Z" fill="black"/></g></g><g id="Medicine-2"><g id="Rectangle-Copy-62"><path id="Vector_27" d="M404.5 1070H310.5V1119H404.5V1070Z" fill="white"/><path id="Vector_28" d="M407.5 1122H307.5V1067H407.5V1122ZM313.5 1116H401.5V1073H313.5V1116Z" fill="black"/></g><g id="Rectangle-Copy-64"><path id="Vector_29" d="M404.5 1070H310.5V1119H404.5V1070Z" fill="white"/></g><g id="Rectangle-Copy-65"><path id="Vector_30" d="M407.5 1067H307.5V1122H407.5V1067ZM401.5 1073V1116H313.5V1073H401.5Z" fill="black"/></g><g id="Rectangle-Copy-63"><path id="Vector_31" d="M387 1099.5H328C304.804 1099.5 286 1118.3 286 1141.5V1320.5C286 1343.7 304.804 1362.5 328 1362.5H387C410.196 1362.5 429 1343.7 429 1320.5V1141.5C429 1118.3 410.196 1099.5 387 1099.5Z" fill="white"/><path id="Vector_32" d="M387 1364H328C316.466 1363.99 305.408 1359.4 297.253 1351.25C289.097 1343.09 284.511 1332.03 284.5 1320.5V1141.5C284.511 1129.97 289.097 1118.91 297.253 1110.75C305.408 1102.6 316.466 1098.01 328 1098H387C398.534 1098.01 409.592 1102.6 417.747 1110.75C425.903 1118.91 430.489 1129.97 430.5 1141.5V1320.5C430.489 1332.03 425.903 1343.09 417.747 1351.25C409.592 1359.4 398.534 1363.99 387 1364V1364ZM328 1101C317.263 1101.01 306.969 1105.28 299.377 1112.88C291.784 1120.47 287.513 1130.76 287.5 1141.5V1320.5C287.513 1331.24 291.784 1341.53 299.377 1349.12C306.969 1356.72 317.263 1360.99 328 1361H387C397.737 1360.99 408.031 1356.72 415.623 1349.12C423.216 1341.53 427.487 1331.24 427.5 1320.5V1141.5C427.487 1130.76 423.216 1120.47 415.623 1112.88C408.031 1105.28 397.737 1101.01 387 1101H328Z" fill="black"/></g><g id="Rectangle-Copy-71"><path id="Vector_33" d="M388.5 1098C399.639 1098 410.322 1102.42 418.198 1110.3C426.075 1118.18 430.5 1128.86 430.5 1140V1322C430.5 1327.52 429.414 1332.98 427.303 1338.07C425.192 1343.17 422.099 1347.8 418.198 1351.7C414.298 1355.6 409.668 1358.69 404.573 1360.8C399.477 1362.91 394.016 1364 388.5 1364H326.5C320.984 1364 315.523 1362.91 310.427 1360.8C305.332 1358.69 300.702 1355.6 296.802 1351.7C292.901 1347.8 289.808 1343.17 287.697 1338.07C285.586 1332.98 284.5 1327.52 284.5 1322V1140C284.5 1128.86 288.925 1118.18 296.802 1110.3C304.678 1102.42 315.361 1098 326.5 1098H388.5ZM388.5 1104H326.5C317.055 1104 307.988 1107.71 301.254 1114.33C294.52 1120.95 290.657 1129.96 290.5 1139.4V1322C290.499 1331.44 294.209 1340.51 300.831 1347.25C307.453 1353.98 316.457 1357.84 325.9 1358H388.5C397.945 1358 407.012 1354.29 413.746 1347.67C420.48 1341.05 424.343 1332.04 424.5 1322.6V1140C424.501 1130.56 420.791 1121.49 414.169 1114.75C407.547 1108.02 398.543 1104.16 389.1 1104H388.5Z" fill="black"/></g><g id="Rectangle-Copy-66"><path id="Vector_34" d="M430.5 1043H284.5V1083H430.5V1043Z" fill="white"/><path id="Vector_35" d="M433.5 1086H281.5V1040H433.5V1086ZM287.5 1080H427.5V1046H287.5V1080Z" fill="black"/></g><g id="Rectangle-Copy-70"><path id="Vector_36" d="M433.5 1040H281.5V1086H433.5V1040ZM427.5 1046V1080H287.5V1046H427.5Z" fill="black"/></g><g id="Rectangle-Copy-67"><path id="Vector_37" d="M428.5 1169H286.5V1311H428.5V1169Z" fill="white"/></g><g id="Rectangle-Copy-72"><path id="Vector_38" d="M431.5 1166H283.5V1314H431.5V1166ZM425.5 1172V1308H289.5V1172H425.5Z" fill="black"/></g><g id="Rectangle-Copy-69"><path id="Vector_39" d="M430 1167.5H285V1312.5H430V1167.5ZM427 1170.5V1309.5H288V1170.5H427Z" fill="black"/></g></g></g><path id="Path" fill-rule="evenodd" clip-rule="evenodd" d="M794 272.001L805.346 272.07C836.924 272.26 862.484 297.658 862.992 329.117L863 330.072V341.22C863 370.413 850.244 398.133 828.107 417.121L827.434 417.694L726 503.157V504L725.5 503.579L725 504V503.157L623.566 417.694C601.015 398.693 588 370.708 588 341.22V330.072C588 298.174 613.757 272.262 645.654 272.07L657 272.001C692.204 271.789 721.374 298.138 725.5 332.269C729.585 298.48 758.215 272.317 792.946 272.003L794 272.001Z" fill="black"/></g></g><g id="Master/Character/Standing" transform="translate(-84 0) scale(1 1)"><g id="Master/Character/Standing"><g id="Lower Body" transform="translate(-104 695) scale(1 1)"><g id="Lower Body/Walking"><g id="Group 202"><g id="blue"><g id="shoe"><g id="Group-5"><g id="Fill-1"><path id="Vector" fill-rule="evenodd" clip-rule="evenodd" d="M182.1 761.79L186.01 759.15L190.1 756.32C192.82 754.45 195.59 752.46 198.36 750.48C203.89 746.58 209.43 742.38 214.96 738.31C220.49 734.24 225.96 729.92 231.49 725.67L247.87 712.67L303 781L286.87 793.79C281.49 798.05 275.97 802.17 270.52 806.36C270.091 806.696 269.805 807.182 269.72 807.72C269.645 808.244 269.782 808.776 270.1 809.2L270.2 809.34C275.501 816.697 279.048 825.17 280.57 834.11C281.204 838.148 281.261 842.256 280.74 846.31C280.483 848.272 280.075 850.211 279.52 852.11C278.939 854.019 278.214 855.881 277.35 857.68C276.479 859.536 275.476 861.327 274.35 863.04C273.151 864.857 271.814 866.579 270.35 868.19C268.777 869.926 267.108 871.572 265.35 873.12C263.379 874.834 261.32 876.443 259.18 877.94L182.1 761.79Z" fill="white"/></g><g id="Fill-3"><path id="Vector_2" fill-rule="evenodd" clip-rule="evenodd" d="M305.799 781.22C300.219 785.78 294.509 790.22 288.869 794.69C286.049 796.95 283.179 799.14 280.299 801.33L271.689 807.92L271.789 808.06C273.661 810.611 275.317 813.314 276.739 816.14C279.618 821.634 281.59 827.557 282.579 833.68C283.857 841.408 282.963 849.339 279.999 856.59C278.114 861.012 275.557 865.117 272.419 868.76C270.557 870.912 268.553 872.937 266.419 874.82C265.289 875.82 263.949 876.82 262.609 877.88C261.939 878.39 261.239 878.88 260.529 879.41L259.199 880.32L257.769 881.26L229.769 837.86L215.509 815.76L180.029 760.76L183.669 758.32C184.999 757.43 186.449 756.42 187.869 755.43L192.139 752.43L196.469 749.33C202.239 745.26 208.019 740.91 213.789 736.65C219.559 732.39 225.279 728 230.999 723.5C236.719 719 242.429 714.5 248.079 709.91L305.799 781.22ZM300.119 780.68L247.639 715.44L231.999 727.84L216.199 739.91L208.249 745.79L204.249 748.72L200.249 751.56C197.609 753.43 194.939 755.4 192.329 757.18C189.719 758.96 187.069 760.85 184.609 762.49L218.819 813.49L233.469 835.34L259.999 874.85C263.555 872.232 266.797 869.212 269.659 865.85C272.138 862.912 274.198 859.644 275.779 856.14C278.802 849.353 279.751 841.825 278.509 834.5C277.037 825.864 273.617 817.677 268.509 810.56L268.439 810.47C268.127 810.052 267.9 809.576 267.773 809.069C267.646 808.563 267.621 808.036 267.699 807.52C267.859 806.44 268.433 805.464 269.299 804.8C274.469 800.8 279.689 796.9 284.819 792.88L300.139 780.75L300.119 780.68Z" fill="black"/></g><g id="Stroke-7"><path id="Vector_3" d="M196.276 751.892L193.01 754.202L271.032 864.519L274.298 862.209L196.276 751.892Z" fill="black"/></g><g id="Stroke-9"><path id="Vector_4" d="M268.439 810.33C266.863 808.304 265.702 805.987 265.022 803.512C264.341 801.037 264.155 798.452 264.473 795.905C264.792 793.357 265.609 790.898 266.878 788.667C268.147 786.435 269.843 784.476 271.869 782.9C273.896 781.324 276.212 780.163 278.688 779.482C281.163 778.802 283.748 778.616 286.295 778.934C288.842 779.253 291.301 780.07 293.533 781.339C295.764 782.608 297.723 784.304 299.299 786.33L296.169 788.83C293.583 785.756 289.906 783.804 285.912 783.382C281.917 782.96 277.914 784.101 274.742 786.566C271.57 789.032 269.477 792.63 268.9 796.605C268.323 800.581 269.309 804.625 271.649 807.89L268.439 810.33Z" fill="black"/></g></g></g><g id="leg"><g id="Fill-5"><path id="Vector" fill-rule="evenodd" clip-rule="evenodd" d="M323 802.5L236.59 695.71L250.83 684C255.57 680.09 260.21 676 264.91 672.05L271.91 666.05C274.24 664.05 276.53 661.96 278.84 659.92L292.68 647.63C326.27 617.26 358.43 585.18 389.01 551.79L411.56 526.41L414.38 523.24L417.11 519.99L422.55 513.5L433.45 500.5L438.91 494.01C439.85 492.92 440.62 491.89 441.48 490.83L444 487.7C447.35 483.47 450.75 479.3 454 474.93C460.61 466.34 467 457.51 473.34 448.57C498.794 412.099 521.907 374.049 542.54 334.65C553.033 314.77 563.033 294.563 572.54 274.03C582.06 253.55 591.05 232.76 599.54 211.86C606.1 195.51 638.36 120 654 113.3C670.54 106.342 689.045 105.631 706.07 111.3C714.715 113.995 722.691 118.49 729.474 124.49C736.256 130.49 741.691 137.858 745.42 146.11C752.82 162.29 759.07 184.19 751.75 202.31C742.4 225.4 707.7 309.21 697.21 331.78C686.72 354.35 675.72 376.7 664.06 398.78C640.719 443.336 614.562 486.36 585.75 527.59C578.43 537.96 570.95 548.24 563.17 558.36C559.37 563.47 555.34 568.45 551.36 573.46C549.36 575.95 547.36 578.52 545.36 580.92L539.36 588.07L527.36 602.36L521.36 609.51L518.36 613.08L515.27 616.57L490.49 644.44C456.93 681.107 421.72 716.137 384.86 749.53L369.67 763.03C367.13 765.27 364.61 767.54 362.05 769.76L354.31 776.37C349.14 780.76 344.03 785.21 338.8 789.54L323 802.5Z" fill="#2945ff"/></g><g id="DOTS"><g id="Fill-11"><path id="Vector_5" fill-rule="evenodd" clip-rule="evenodd" d="M655.26 211.22C654.083 210.904 653.075 210.141 652.453 209.093C651.831 208.045 651.643 206.795 651.93 205.61C652.147 204.704 652.63 203.884 653.316 203.254C654.002 202.625 654.86 202.214 655.781 202.075C656.702 201.935 657.643 202.074 658.485 202.473C659.326 202.872 660.03 203.512 660.505 204.313C660.981 205.114 661.206 206.038 661.153 206.968C661.1 207.898 660.771 208.791 660.208 209.532C659.645 210.274 658.873 210.831 657.992 211.131C657.11 211.432 656.159 211.463 655.26 211.22" fill="black"/></g><g id="Fill-13"><path id="Vector_6" fill-rule="evenodd" clip-rule="evenodd" d="M715.341 234.35C714.428 234.113 713.605 233.609 712.979 232.904C712.352 232.198 711.949 231.322 711.821 230.387C711.693 229.453 711.846 228.501 712.261 227.653C712.675 226.805 713.332 226.099 714.148 225.626C714.964 225.152 715.903 224.932 716.845 224.993C717.786 225.054 718.689 225.393 719.437 225.968C720.185 226.543 720.746 227.327 721.048 228.221C721.349 229.116 721.378 230.079 721.131 230.99C720.972 231.591 720.696 232.155 720.319 232.649C719.941 233.143 719.47 233.558 718.933 233.87C718.395 234.182 717.801 234.385 717.185 234.468C716.568 234.55 715.942 234.51 715.341 234.35" fill="black"/></g><g id="Fill-15"><path id="Vector_7" fill-rule="evenodd" clip-rule="evenodd" d="M612.631 238.39C611.468 238.05 610.485 237.268 609.893 236.212C609.3 235.156 609.145 233.909 609.461 232.74C609.649 232.174 609.948 231.651 610.339 231.201C610.731 230.75 611.208 230.382 611.742 230.117C612.277 229.852 612.858 229.696 613.454 229.657C614.049 229.618 614.646 229.697 615.211 229.89C616.378 230.223 617.366 231.004 617.962 232.061C618.557 233.119 618.711 234.369 618.391 235.54C618.202 236.107 617.903 236.631 617.511 237.082C617.119 237.533 616.641 237.902 616.105 238.167C615.57 238.432 614.987 238.588 614.39 238.626C613.794 238.665 613.196 238.584 612.631 238.39" fill="black"/></g><g id="Fill-17"><path id="Vector_8" fill-rule="evenodd" clip-rule="evenodd" d="M672 263.36C671.124 263.084 670.349 262.554 669.774 261.838C669.198 261.122 668.848 260.252 668.766 259.337C668.685 258.422 668.876 257.503 669.317 256.697C669.757 255.89 670.426 255.233 671.24 254.806C672.054 254.38 672.975 254.204 673.889 254.301C674.802 254.398 675.667 254.763 676.373 255.351C677.079 255.939 677.595 256.722 677.856 257.603C678.117 258.484 678.112 259.422 677.84 260.3C677.467 261.477 676.644 262.46 675.55 263.033C674.456 263.606 673.18 263.724 672 263.36" fill="black"/></g><g id="Fill-19"><path id="Vector_9" fill-rule="evenodd" clip-rule="evenodd" d="M623 287.91C621.834 287.527 620.866 286.701 620.305 285.61C619.743 284.519 619.634 283.251 620 282.08C620.411 280.934 621.26 279.999 622.361 279.479C623.462 278.96 624.724 278.899 625.87 279.31C627.039 279.684 628.012 280.507 628.575 281.599C629.138 282.69 629.244 283.96 628.87 285.13C628.671 285.701 628.36 286.226 627.956 286.675C627.552 287.125 627.063 287.489 626.516 287.748C625.97 288.007 625.378 288.154 624.774 288.182C624.171 288.21 623.567 288.117 623 287.91" fill="black"/></g><g id="Fill-21"><path id="Vector_10" fill-rule="evenodd" clip-rule="evenodd" d="M681.571 314.62C680.378 314.213 679.395 313.348 678.839 312.217C678.283 311.085 678.199 309.778 678.606 308.585C679.013 307.391 679.878 306.409 681.01 305.853C682.141 305.297 683.448 305.213 684.641 305.62C685.232 305.822 685.778 306.138 686.246 306.55C686.715 306.962 687.098 307.463 687.374 308.023C687.649 308.584 687.811 309.193 687.851 309.816C687.891 310.439 687.808 311.064 687.606 311.655C687.405 312.246 687.089 312.791 686.676 313.26C686.264 313.729 685.763 314.112 685.203 314.387C684.642 314.663 684.033 314.825 683.41 314.865C682.787 314.905 682.162 314.822 681.571 314.62" fill="black"/></g><g id="Fill-23"><path id="Vector_11" fill-rule="evenodd" clip-rule="evenodd" d="M578.81 312.51C577.669 312.106 576.732 311.269 576.202 310.18C575.673 309.091 575.593 307.837 575.98 306.69C576.202 306.136 576.532 305.632 576.95 305.207C577.368 304.781 577.866 304.443 578.416 304.211C578.965 303.98 579.555 303.86 580.152 303.858C580.748 303.856 581.339 303.972 581.89 304.2C583.035 304.6 583.975 305.436 584.506 306.526C585.036 307.617 585.113 308.873 584.72 310.02C584.5 310.574 584.171 311.079 583.753 311.506C583.335 311.932 582.837 312.271 582.287 312.502C581.737 312.734 581.146 312.854 580.549 312.855C579.952 312.857 579.361 312.739 578.81 312.51" fill="black"/></g><g id="Fill-25"><path id="Vector_12" fill-rule="evenodd" clip-rule="evenodd" d="M636.561 341C635.705 340.673 634.965 340.099 634.434 339.351C633.904 338.604 633.606 337.716 633.58 336.8C633.554 335.883 633.799 334.98 634.286 334.203C634.772 333.426 635.478 332.811 636.314 332.435C637.15 332.059 638.079 331.938 638.983 332.089C639.887 332.24 640.726 332.656 641.394 333.283C642.062 333.911 642.53 334.722 642.737 335.615C642.945 336.508 642.884 337.442 642.561 338.3C642.119 339.451 641.241 340.38 640.117 340.886C638.993 341.392 637.715 341.433 636.561 341" fill="black"/></g><g id="Fill-27"><path id="Vector_13" fill-rule="evenodd" clip-rule="evenodd" d="M586.221 362.5C585.085 362.043 584.175 361.157 583.688 360.034C583.201 358.911 583.177 357.641 583.621 356.5C583.853 355.945 584.193 355.442 584.622 355.019C585.05 354.597 585.558 354.264 586.117 354.04C586.675 353.816 587.272 353.705 587.874 353.713C588.475 353.722 589.069 353.85 589.621 354.09C590.764 354.539 591.683 355.421 592.178 356.546C592.673 357.67 592.702 358.944 592.261 360.09C592.025 360.642 591.683 361.143 591.254 361.563C590.825 361.982 590.317 362.313 589.759 362.536C589.202 362.759 588.606 362.87 588.005 362.862C587.405 362.854 586.812 362.728 586.261 362.49" fill="black"/></g><g id="Fill-29"><path id="Vector_14" fill-rule="evenodd" clip-rule="evenodd" d="M643.05 392.75C642.175 392.403 641.423 391.803 640.89 391.028C640.356 390.252 640.065 389.335 640.053 388.394C640.041 387.453 640.31 386.529 640.824 385.741C641.338 384.952 642.075 384.334 642.941 383.965C643.807 383.596 644.763 383.493 645.688 383.668C646.613 383.844 647.465 384.29 648.136 384.951C648.807 385.611 649.266 386.456 649.455 387.379C649.645 388.301 649.556 389.258 649.201 390.13C648.971 390.707 648.629 391.233 648.195 391.678C647.76 392.122 647.242 392.477 646.671 392.72C646.099 392.964 645.485 393.092 644.864 393.097C644.242 393.102 643.626 392.984 643.05 392.75Z" fill="black"/></g><g id="Fill-31"><path id="Vector_15" fill-rule="evenodd" clip-rule="evenodd" d="M540.651 384.11C539.535 383.633 538.651 382.737 538.191 381.614C537.731 380.491 537.731 379.233 538.191 378.11C538.716 377.044 539.641 376.228 540.765 375.841C541.888 375.453 543.12 375.525 544.191 376.04C544.747 376.271 545.253 376.609 545.678 377.036C546.104 377.463 546.441 377.97 546.669 378.528C546.898 379.086 547.014 379.683 547.011 380.286C547.008 380.889 546.885 381.485 546.651 382.04C546.394 382.578 546.034 383.059 545.589 383.456C545.145 383.853 544.626 384.157 544.062 384.35C543.499 384.544 542.903 384.623 542.308 384.584C541.714 384.544 541.133 384.387 540.601 384.12" fill="black"/></g><g id="Fill-33"><path id="Vector_16" fill-rule="evenodd" clip-rule="evenodd" d="M596.42 416.27C595.587 415.885 594.886 415.262 594.406 414.479C593.927 413.697 593.689 412.79 593.724 411.873C593.759 410.956 594.064 410.069 594.602 409.325C595.139 408.581 595.885 408.013 596.745 407.692C597.605 407.372 598.54 407.312 599.434 407.522C600.327 407.732 601.139 408.202 601.766 408.872C602.393 409.542 602.808 410.383 602.958 411.288C603.108 412.194 602.987 413.123 602.61 413.96C602.094 415.086 601.152 415.961 599.992 416.394C598.832 416.827 597.547 416.782 596.42 416.27" fill="black"/></g><g id="Fill-35"><path id="Vector_17" fill-rule="evenodd" clip-rule="evenodd" d="M544.79 434.29C543.692 433.756 542.847 432.814 542.434 431.665C542.021 430.516 542.074 429.251 542.58 428.14C542.851 427.602 543.226 427.124 543.683 426.732C544.14 426.34 544.671 426.042 545.243 425.856C545.816 425.67 546.42 425.6 547.02 425.648C547.62 425.697 548.205 425.864 548.74 426.14C549.844 426.664 550.697 427.604 551.111 428.754C551.525 429.905 551.467 431.172 550.95 432.28C550.682 432.82 550.309 433.302 549.852 433.696C549.395 434.09 548.865 434.389 548.291 434.576C547.717 434.762 547.112 434.832 546.511 434.781C545.909 434.73 545.325 434.56 544.79 434.28" fill="black"/></g><g id="Fill-37"><path id="Vector_18" fill-rule="evenodd" clip-rule="evenodd" d="M599.341 468.48C598.485 468.076 597.769 467.427 597.283 466.615C596.797 465.804 596.563 464.865 596.612 463.92C596.66 462.975 596.989 462.066 597.556 461.308C598.123 460.551 598.902 459.979 599.795 459.665C600.687 459.351 601.653 459.31 602.569 459.547C603.486 459.784 604.31 460.288 604.939 460.995C605.568 461.702 605.973 462.58 606.101 463.518C606.23 464.455 606.077 465.41 605.661 466.26C605.115 467.39 604.143 468.258 602.959 468.674C601.775 469.09 600.474 469.02 599.341 468.48" fill="black"/></g><g id="Fill-39"><path id="Vector_19" fill-rule="evenodd" clip-rule="evenodd" d="M497.93 452.21C496.867 451.654 496.063 450.706 495.69 449.567C495.316 448.427 495.402 447.187 495.93 446.11C496.222 445.599 496.614 445.151 497.082 444.793C497.55 444.435 498.085 444.175 498.655 444.027C499.225 443.878 499.819 443.846 500.402 443.93C500.985 444.015 501.545 444.216 502.05 444.52C503.115 445.081 503.919 446.035 504.292 447.18C504.666 448.324 504.579 449.569 504.05 450.65C503.755 451.164 503.36 451.614 502.887 451.972C502.415 452.331 501.875 452.59 501.301 452.736C500.726 452.882 500.128 452.91 499.542 452.82C498.956 452.729 498.394 452.522 497.89 452.21" fill="black"/></g><g id="Fill-41"><path id="Vector_20" fill-rule="evenodd" clip-rule="evenodd" d="M551 488.6C550.199 488.152 549.548 487.477 549.13 486.66C548.712 485.844 548.545 484.921 548.65 484.009C548.755 483.098 549.127 482.238 549.72 481.537C550.313 480.837 551.1 480.327 551.981 480.073C552.863 479.819 553.801 479.831 554.675 480.109C555.55 480.386 556.323 480.917 556.897 481.633C557.471 482.349 557.821 483.219 557.901 484.133C557.982 485.047 557.79 485.965 557.35 486.77C557.058 487.311 556.66 487.789 556.181 488.175C555.702 488.561 555.15 488.847 554.559 489.017C553.968 489.188 553.349 489.239 552.738 489.167C552.127 489.095 551.536 488.903 551 488.6Z" fill="black"/></g><g id="Fill-43"><path id="Vector_21" fill-rule="evenodd" clip-rule="evenodd" d="M498.13 502.21C497.403 501.718 496.837 501.024 496.501 500.213C496.165 499.403 496.075 498.511 496.241 497.65C496.408 496.788 496.824 495.994 497.437 495.367C498.051 494.74 498.835 494.306 499.692 494.121C500.55 493.935 501.443 494.005 502.261 494.323C503.079 494.64 503.786 495.191 504.294 495.907C504.802 496.622 505.088 497.471 505.118 498.348C505.147 499.225 504.918 500.092 504.46 500.84C504.135 501.346 503.714 501.784 503.219 502.127C502.725 502.47 502.168 502.713 501.58 502.84C500.991 502.967 500.384 502.977 499.792 502.869C499.2 502.761 498.635 502.537 498.13 502.21" fill="black"/></g><g id="Fill-45"><path id="Vector_22" fill-rule="evenodd" clip-rule="evenodd" d="M549.511 541C548.984 540.672 548.527 540.242 548.167 539.736C547.808 539.231 547.551 538.659 547.414 538.053C547.276 537.448 547.26 536.822 547.366 536.21C547.472 535.598 547.698 535.014 548.031 534.49C548.683 533.417 549.728 532.641 550.944 532.327C552.16 532.014 553.45 532.187 554.541 532.81C555.074 533.133 555.537 533.56 555.904 534.065C556.27 534.569 556.531 535.142 556.673 535.75C556.815 536.357 556.833 536.987 556.728 537.602C556.623 538.217 556.396 538.804 556.061 539.33C555.408 540.414 554.354 541.197 553.128 541.509C551.902 541.822 550.603 541.639 549.511 541" fill="black"/></g><g id="Fill-47"><path id="Vector_23" fill-rule="evenodd" clip-rule="evenodd" d="M449.851 515.65C449.164 515.12 448.647 514.4 448.365 513.58C448.082 512.759 448.047 511.874 448.262 511.033C448.477 510.192 448.934 509.433 449.576 508.849C450.218 508.265 451.017 507.882 451.874 507.748C452.732 507.613 453.61 507.733 454.4 508.092C455.19 508.451 455.858 509.034 456.32 509.768C456.782 510.502 457.02 511.356 457.002 512.224C456.985 513.091 456.713 513.935 456.221 514.65C455.506 515.623 454.435 516.274 453.242 516.461C452.049 516.648 450.831 516.357 449.851 515.65" fill="black"/></g><g id="Fill-49"><path id="Vector_24" fill-rule="evenodd" clip-rule="evenodd" d="M499.43 556.72C498.923 556.38 498.488 555.943 498.15 555.434C497.812 554.926 497.578 554.356 497.461 553.756C497.344 553.157 497.346 552.541 497.468 551.943C497.59 551.344 497.828 550.776 498.17 550.27C498.881 549.256 499.961 548.562 501.179 548.337C502.397 548.113 503.654 548.376 504.68 549.07C505.19 549.406 505.627 549.841 505.967 550.349C506.307 550.856 506.543 551.426 506.66 552.026C506.777 552.625 506.774 553.242 506.65 553.84C506.527 554.439 506.285 555.006 505.94 555.51C505.592 556.017 505.148 556.451 504.632 556.786C504.117 557.121 503.54 557.352 502.936 557.464C502.331 557.576 501.71 557.569 501.109 557.441C500.507 557.313 499.937 557.068 499.43 556.72" fill="black"/></g><g id="Fill-51"><path id="Vector_25" fill-rule="evenodd" clip-rule="evenodd" d="M445.451 566.06C444.746 565.514 444.218 564.773 443.932 563.928C443.646 563.084 443.614 562.174 443.842 561.312C444.069 560.45 444.545 559.674 445.211 559.081C445.877 558.488 446.702 558.104 447.584 557.977C448.467 557.85 449.367 557.986 450.173 558.367C450.979 558.748 451.655 559.358 452.116 560.121C452.577 560.884 452.804 561.766 452.768 562.656C452.731 563.547 452.433 564.407 451.911 565.13C451.549 565.617 451.095 566.027 450.574 566.338C450.052 566.648 449.475 566.853 448.875 566.939C448.274 567.025 447.663 566.992 447.075 566.841C446.488 566.691 445.936 566.425 445.451 566.06Z" fill="black"/></g><g id="Fill-53"><path id="Vector_26" fill-rule="evenodd" clip-rule="evenodd" d="M493.811 608.56C493.312 608.198 492.891 607.74 492.57 607.214C492.25 606.688 492.037 606.103 491.944 605.494C491.851 604.885 491.88 604.263 492.029 603.665C492.177 603.067 492.443 602.505 492.811 602.01C493.55 601.001 494.655 600.322 495.889 600.118C497.122 599.914 498.387 600.202 499.411 600.92C499.911 601.28 500.335 601.736 500.657 602.261C500.979 602.786 501.192 603.371 501.286 603.98C501.379 604.589 501.349 605.211 501.199 605.808C501.049 606.406 500.781 606.967 500.411 607.46C499.679 608.477 498.574 609.163 497.338 609.369C496.101 609.575 494.834 609.284 493.811 608.56" fill="black"/></g><g id="Fill-55"><path id="Vector_27" fill-rule="evenodd" clip-rule="evenodd" d="M396.001 576.92C395.027 576.201 394.375 575.127 394.188 573.93C394.001 572.734 394.293 571.512 395.001 570.53C395.534 569.759 396.287 569.166 397.161 568.827C398.035 568.488 398.99 568.419 399.904 568.628C400.818 568.837 401.648 569.316 402.287 570.001C402.926 570.687 403.345 571.548 403.49 572.475C403.635 573.401 403.499 574.349 403.1 575.197C402.701 576.045 402.057 576.754 401.25 577.233C400.444 577.711 399.513 577.937 398.578 577.881C397.642 577.826 396.744 577.491 396.001 576.92" fill="black"/></g><g id="Fill-57"><path id="Vector_28" fill-rule="evenodd" clip-rule="evenodd" d="M443.131 620.79C442.412 620.225 441.876 619.46 441.59 618.591C441.304 617.722 441.281 616.788 441.525 615.907C441.768 615.025 442.266 614.235 442.957 613.636C443.648 613.037 444.501 612.655 445.408 612.539C446.315 612.423 447.237 612.577 448.056 612.983C448.876 613.389 449.557 614.028 450.015 614.82C450.472 615.612 450.686 616.521 450.628 617.434C450.571 618.347 450.244 619.222 449.691 619.95C449.317 620.439 448.851 620.849 448.318 621.156C447.785 621.463 447.196 621.661 446.586 621.74C445.976 621.818 445.357 621.774 444.763 621.611C444.17 621.448 443.615 621.169 443.131 620.79" fill="black"/></g><g id="Fill-59"><path id="Vector_29" fill-rule="evenodd" clip-rule="evenodd" d="M388.7 627C388.024 626.419 387.533 625.651 387.291 624.792C387.048 623.934 387.063 623.023 387.335 622.173C387.607 621.324 388.123 620.573 388.819 620.015C389.515 619.457 390.36 619.116 391.248 619.035C392.137 618.954 393.029 619.137 393.814 619.561C394.599 619.984 395.242 620.629 395.663 621.416C396.084 622.203 396.263 623.096 396.179 623.984C396.095 624.872 395.751 625.716 395.19 626.41C394.804 626.877 394.33 627.263 393.794 627.545C393.258 627.828 392.672 628.002 392.068 628.057C391.465 628.111 390.857 628.046 390.279 627.865C389.701 627.684 389.164 627.39 388.7 627" fill="black"/></g><g id="Fill-61"><path id="Vector_30" fill-rule="evenodd" clip-rule="evenodd" d="M434.561 672.21C433.598 671.42 432.987 670.281 432.863 669.041C432.739 667.802 433.113 666.564 433.901 665.6C434.687 664.63 435.823 664.009 437.064 663.87C438.305 663.732 439.55 664.087 440.531 664.86C441.011 665.248 441.41 665.728 441.703 666.272C441.997 666.816 442.18 667.412 442.241 668.027C442.303 668.642 442.241 669.263 442.061 669.854C441.881 670.445 441.585 670.994 441.191 671.47C440.805 671.955 440.327 672.358 439.784 672.658C439.242 672.958 438.645 673.147 438.03 673.216C437.414 673.285 436.79 673.231 436.195 673.059C435.6 672.886 435.044 672.598 434.561 672.21" fill="black"/></g><g id="Fill-63"><path id="Vector_31" fill-rule="evenodd" clip-rule="evenodd" d="M338.731 635.11C337.796 634.335 337.203 633.224 337.078 632.017C336.952 630.809 337.305 629.6 338.061 628.65C338.456 628.203 338.936 627.839 339.473 627.579C340.009 627.319 340.592 627.168 341.188 627.136C341.783 627.103 342.379 627.189 342.941 627.389C343.503 627.589 344.02 627.899 344.461 628.3C345.402 629.07 346.001 630.181 346.128 631.39C346.255 632.6 345.901 633.81 345.141 634.76C344.747 635.21 344.267 635.576 343.729 635.837C343.191 636.099 342.607 636.251 342.01 636.283C341.413 636.316 340.815 636.229 340.252 636.027C339.689 635.826 339.172 635.514 338.731 635.11" fill="black"/></g><g id="Fill-65"><path id="Vector_32" fill-rule="evenodd" clip-rule="evenodd" d="M383.302 681.56C382.605 680.96 382.103 680.167 381.857 679.282C381.611 678.396 381.633 677.458 381.92 676.585C382.207 675.712 382.747 674.944 383.47 674.377C384.193 673.811 385.068 673.471 385.985 673.401C386.901 673.331 387.817 673.535 388.618 673.985C389.419 674.436 390.068 675.114 390.484 675.933C390.9 676.753 391.064 677.677 390.955 678.589C390.846 679.502 390.469 680.362 389.872 681.06C389.475 681.527 388.99 681.912 388.444 682.19C387.898 682.469 387.302 682.636 386.691 682.683C386.08 682.729 385.466 682.654 384.884 682.461C384.302 682.268 383.764 681.962 383.302 681.56" fill="black"/></g><g id="Fill-67"><path id="Vector_33" fill-rule="evenodd" clip-rule="evenodd" d="M328.661 684.78C327.748 683.961 327.191 682.819 327.107 681.596C327.023 680.373 327.419 679.166 328.211 678.23C328.617 677.785 329.108 677.426 329.654 677.172C330.201 676.919 330.792 676.776 331.394 676.753C331.996 676.73 332.596 676.826 333.16 677.037C333.725 677.248 334.242 677.568 334.681 677.98C335.603 678.793 336.167 679.936 336.251 681.163C336.336 682.389 335.933 683.599 335.131 684.53C334.727 684.978 334.237 685.341 333.691 685.597C333.144 685.853 332.552 685.996 331.949 686.02C331.346 686.043 330.744 685.945 330.18 685.732C329.615 685.519 329.099 685.196 328.661 684.78" fill="black"/></g><g id="Fill-69"><path id="Vector_34" fill-rule="evenodd" clip-rule="evenodd" d="M371.9 732.48C370.982 731.633 370.434 730.458 370.375 729.211C370.315 727.963 370.748 726.741 371.58 725.81C372.207 725.133 373.019 724.656 373.915 724.439C374.811 724.222 375.751 724.275 376.618 724.59C377.484 724.906 378.238 725.47 378.785 726.213C379.331 726.955 379.647 727.843 379.691 728.764C379.735 729.685 379.506 730.598 379.033 731.389C378.56 732.181 377.863 732.815 377.031 733.212C376.199 733.609 375.268 733.751 374.355 733.621C373.442 733.491 372.588 733.094 371.9 732.48Z" fill="black"/></g><g id="Fill-71"><path id="Vector_35" fill-rule="evenodd" clip-rule="evenodd" d="M277.941 690.21C277.33 689.575 276.919 688.775 276.76 687.909C276.6 687.043 276.699 686.149 277.044 685.338C277.389 684.528 277.964 683.837 278.699 683.351C279.434 682.865 280.295 682.606 281.176 682.606C282.056 682.606 282.918 682.865 283.652 683.351C284.387 683.837 284.962 684.528 285.307 685.338C285.652 686.149 285.751 687.043 285.591 687.909C285.432 688.775 285.021 689.575 284.411 690.21C283.987 690.638 283.484 690.977 282.928 691.209C282.373 691.441 281.777 691.56 281.176 691.56C280.574 691.56 279.978 691.441 279.423 691.209C278.867 690.977 278.364 690.638 277.941 690.21" fill="black"/></g><g id="Fill-73"><path id="Vector_36" fill-rule="evenodd" clip-rule="evenodd" d="M319.761 739.16C319.091 738.516 318.626 737.688 318.427 736.781C318.227 735.873 318.3 734.927 318.638 734.061C318.976 733.195 319.562 732.449 320.324 731.917C321.086 731.385 321.988 731.09 322.917 731.071C323.847 731.051 324.761 731.307 325.544 731.807C326.328 732.307 326.945 733.028 327.319 733.878C327.693 734.729 327.806 735.672 327.645 736.587C327.483 737.502 327.054 738.349 326.411 739.02C325.985 739.467 325.474 739.826 324.908 740.075C324.343 740.325 323.733 740.46 323.115 740.473C322.497 740.486 321.883 740.376 321.307 740.151C320.732 739.926 320.206 739.589 319.761 739.16Z" fill="black"/></g></g></g></g><g id="leg_2"><g id="Fill-75"><path id="Vector_37" fill-rule="evenodd" clip-rule="evenodd" d="M577.211 111.32C577.211 48.73 636.761 -2 710.211 -2C783.661 -2 843.211 48.73 843.211 111.32C843.211 173.91 783.661 224.63 710.211 224.63C636.761 224.63 577.211 173.9 577.211 111.32Z" fill="black"/></g><g id="Fill-82"><path id="Vector_38" fill-rule="evenodd" clip-rule="evenodd" d="M1041.12 811C1028.41 788.333 1015.65 765.717 1002.83 743.15C978.87 700.963 954.714 658.963 930.36 617.15L912 585.86L893.6 554.7L875 523.7L856.27 492.82C806 410.56 703.07 247.34 650.21 166.14C640.265 150.883 636.75 132.316 640.431 114.48C644.111 96.6438 654.689 80.984 669.86 70.91C701.43 49.91 744.34 58.91 765.3 91.12C818.78 173.27 922.3 337.32 973.56 421.23L992.7 452.79L1011.7 484.46L1030.46 516.17L1049 547.92C1073.71 590.3 1098.13 632.78 1122.26 675.36C1135.19 698.14 1148.06 720.95 1160.89 743.79L1041.12 811Z" fill="black"/></g></g><g id="shoe_2"><g id="Fill-78"><path id="Vector_39" fill-rule="evenodd" clip-rule="evenodd" d="M1102.26 879.11C1088.26 853.74 1074.01 828.24 1059.77 802.84L1136.28 759.92L1156 795.18C1156.13 795.421 1156.3 795.633 1156.51 795.805C1156.72 795.977 1156.96 796.105 1157.22 796.18C1157.73 796.315 1158.27 796.247 1158.72 795.99L1158.87 795.91C1166.87 791.683 1175.68 789.227 1184.71 788.71C1201.51 788.06 1214.8 795.71 1224.27 811.82L1102.26 879.11Z" fill="white"/></g><g id="Fill-80"><path id="Vector_40" fill-rule="evenodd" clip-rule="evenodd" d="M1137.05 757.19L1157.76 794.19L1157.91 794.1C1166.17 789.714 1175.29 787.172 1184.63 786.65C1190.68 786.28 1196.74 787.224 1202.39 789.416C1208.04 791.608 1213.14 794.997 1217.36 799.35C1221.19 803.288 1224.46 807.741 1227.06 812.58L1181.81 837.51L1158.81 850.2L1101.5 881.77L1079.35 842L1057.05 802.13L1137.05 757.19ZM1135.52 762.64L1062.52 803.64C1076.11 827.893 1089.63 852.167 1103.09 876.46L1156.86 846.76L1179.86 834.04L1221.47 811.04C1212.47 796.9 1200.18 790.11 1184.81 790.71C1176.08 791.197 1167.55 793.564 1159.81 797.65H1159.71C1159.25 797.907 1158.75 798.071 1158.22 798.132C1157.7 798.193 1157.17 798.15 1156.66 798.006C1156.16 797.862 1155.68 797.62 1155.27 797.293C1154.86 796.966 1154.52 796.56 1154.26 796.1L1135.52 762.59V762.64Z" fill="black"/></g><g id="Stroke-84"><path id="Vector_41" d="M1211.19 796.931L1093.03 862.459L1094.97 865.958L1213.13 800.43L1211.19 796.931Z" fill="black"/></g><g id="Stroke-86"><path id="Vector_42" d="M1150.4 800.12C1146.16 800.131 1142.04 798.734 1138.68 796.149C1135.32 793.564 1132.91 789.937 1131.83 785.837C1130.75 781.736 1131.07 777.394 1132.72 773.491C1134.38 769.588 1137.28 766.345 1140.98 764.27L1142.98 767.76C1139.56 769.768 1137.07 773.035 1136.03 776.861C1134.99 780.687 1135.49 784.767 1137.43 788.227C1139.36 791.688 1142.57 794.253 1146.38 795.373C1150.18 796.493 1154.27 796.079 1157.77 794.22L1159.77 797.71C1156.91 799.308 1153.68 800.139 1150.4 800.12V800.12Z" fill="black"/></g></g></g></g></g><g id="Upper Body" transform="translate(-53 129) scale(1 1)"><g id="Upper Body/Taking Selfie"><g id="left"><path id="Fill 1" fill-rule="evenodd" clip-rule="evenodd" d="M1159.74 114.014C1151.24 119.064 1059.91 151.822 1057.55 161.111C1055.45 164.355 1054.32 168.118 1055.65 171.697C1059.39 181.676 1062.33 191.534 1064.56 201.115C1097.03 325.911 931.754 349.278 842.332 358.078L851.924 475.722C1064.56 462.208 1259.78 354.023 1159.74 114.014" fill="white"/><g id="Group 5"><path id="Fill 3" fill-rule="evenodd" clip-rule="evenodd" d="M844.485 359.874L853.757 473.599C920.238 469.187 982.023 455.58 1032.56 434.212C1089.38 410.186 1131.06 377.303 1156.44 336.477C1193.44 276.961 1194.2 203.055 1158.72 116.779C1154.46 118.788 1145.59 122.327 1134.08 126.924C1119.3 132.829 1100.89 140.179 1085.98 146.838C1062.49 157.329 1059.76 160.801 1059.48 161.616C1059.43 161.826 1059.35 162.015 1059.23 162.197C1057.79 164.427 1056.32 167.764 1057.52 171C1061.15 180.695 1064.18 190.675 1066.51 200.659C1074.7 232.154 1070.88 259.593 1055.14 282.161C1037.68 307.196 1005.1 326.714 958.316 340.174C919.301 351.399 877.22 356.613 844.485 359.874M851.922 477.721C850.888 477.721 850.015 476.927 849.93 475.884L840.339 358.241C840.25 357.153 841.049 356.195 842.136 356.088C874.971 352.856 917.724 347.689 957.21 336.329C1003.09 323.129 1034.93 304.134 1051.86 279.872C1066.9 258.306 1070.52 231.979 1062.62 201.618C1060.32 191.752 1057.35 181.937 1053.78 172.398C1052.39 168.663 1053.07 164.464 1055.74 160.235C1058.24 153.894 1083.79 142.702 1132.6 123.209C1145.28 118.144 1156.24 113.769 1158.72 112.294C1159.22 111.998 1159.82 111.934 1160.37 112.116C1160.92 112.298 1161.37 112.71 1161.59 113.244C1198.43 201.636 1197.84 277.454 1159.83 338.589C1134.01 380.131 1091.71 413.542 1034.12 437.896C982.676 459.647 919.719 473.416 852.05 477.717C852.007 477.72 851.964 477.721 851.922 477.721" fill="black"/></g><g id="Group 2"><path id="Fill 6" fill-rule="evenodd" clip-rule="evenodd" d="M1096.55 146.589C1090.14 134.229 1082.7 106.71 1070.66 100.511C1060.06 96.3447 1051.92 108.788 1057.44 118.477C1065.31 133.403 1072.24 148.568 1077.91 163.815" fill="white"/><path id="Fill 8" fill-rule="evenodd" clip-rule="evenodd" d="M1077.91 165.815C1077.1 165.815 1076.33 165.317 1076.03 164.512C1070.62 149.954 1063.77 134.78 1055.67 119.409C1052.48 113.817 1053.1 106.81 1057.24 102.03C1060.85 97.8532 1066.14 96.5882 1071.39 98.6492C1071.45 98.6742 1071.51 98.7012 1071.57 98.7322C1080.92 103.546 1087.2 119.083 1092.74 132.79C1094.71 137.687 1096.58 142.313 1098.32 145.668C1098.83 146.648 1098.45 147.855 1097.47 148.364C1096.49 148.872 1095.28 148.49 1094.77 147.509C1092.95 143.987 1091.04 139.276 1089.03 134.288C1084.03 121.919 1077.82 106.538 1069.83 102.336C1066.22 100.953 1062.73 101.793 1060.26 104.649C1057.74 107.561 1056.43 112.66 1059.18 117.487C1067.39 133.066 1074.31 148.399 1079.78 163.117C1080.17 164.153 1079.64 165.304 1078.61 165.689C1078.38 165.774 1078.14 165.815 1077.91 165.815" fill="black"/><path id="Fill 10" fill-rule="evenodd" clip-rule="evenodd" d="M1096.55 146.589C1091.2 133.307 1085.08 120.267 1078.34 107.498C1076.55 104.108 1076.09 100.419 1076.71 97.1807C1077.8 90.4277 1085 86.3047 1091.34 89.1407C1103.9 96.1557 1111.57 124.375 1118.45 137.784" fill="white"/><path id="Fill 12" fill-rule="evenodd" clip-rule="evenodd" d="M1096.55 148.589C1095.76 148.589 1095.01 148.115 1094.69 147.335C1089.56 134.571 1083.46 121.481 1076.57 108.431C1074.65 104.791 1074.01 100.661 1074.75 96.8023C1075.37 92.9553 1077.73 89.6303 1081.22 87.7403C1084.64 85.8913 1088.63 85.7363 1092.16 87.3143C1092.21 87.3393 1092.27 87.3653 1092.32 87.3943C1101.99 92.7963 1108.52 108.916 1114.28 123.138C1116.37 128.318 1118.35 133.21 1120.23 136.87C1120.74 137.853 1120.35 139.058 1119.37 139.563C1118.38 140.066 1117.18 139.679 1116.67 138.697C1114.71 134.877 1112.7 129.904 1110.57 124.639C1105.35 111.743 1098.85 95.7023 1090.45 90.9313C1088.08 89.9013 1085.42 90.0203 1083.13 91.2593C1080.73 92.5523 1079.12 94.8263 1078.69 97.4973C1078.1 100.529 1078.61 103.728 1080.11 106.565C1087.06 119.735 1093.22 132.95 1098.4 145.842C1098.82 146.867 1098.32 148.031 1097.3 148.444C1097.05 148.542 1096.8 148.589 1096.55 148.589" fill="black"/><path id="Fill 14" fill-rule="evenodd" clip-rule="evenodd" d="M1118.45 137.784C1112.76 123.63 1106.29 109.883 1099.24 96.5176C1097.37 92.9696 1096.83 89.1386 1097.4 85.8096C1099.53 73.6786 1114.59 74.2156 1120.14 85.5376C1127.5 99.4986 1134.31 113.953 1140.36 128.979" fill="white"/><path id="Fill 16" fill-rule="evenodd" clip-rule="evenodd" d="M1118.45 139.784C1117.66 139.784 1116.91 139.31 1116.59 138.53C1111.16 125.023 1104.72 111.201 1097.47 97.451C1095.47 93.668 1094.75 89.414 1095.43 85.47C1096.44 79.674 1100.24 75.765 1105.58 75.006C1111.97 74.098 1118.7 78.066 1121.93 84.658C1129.59 99.18 1136.42 113.858 1142.21 128.232C1142.62 129.257 1142.12 130.422 1141.1 130.834C1140.08 131.246 1138.91 130.75 1138.5 129.726C1132.76 115.479 1125.99 100.926 1118.36 86.471C1115.45 80.518 1109.99 78.419 1106.14 78.967C1102.55 79.477 1100.08 82.096 1099.37 86.154C1098.84 89.228 1099.42 92.58 1101 95.585C1108.32 109.455 1114.82 123.402 1120.31 137.037C1120.72 138.061 1120.22 139.226 1119.2 139.639C1118.95 139.737 1118.7 139.784 1118.45 139.784" fill="black"/><path id="Fill 18" fill-rule="evenodd" clip-rule="evenodd" d="M1082.1 175.993C1079.04 167.92 1077.17 158.384 1071.97 151.26C1066.4 144.911 1055.3 147.116 1052.69 155.113C1051.61 158.068 1051.6 161.357 1052.8 164.339C1058.47 178.47 1062.93 192.505 1065.56 205.849" fill="white"/><path id="Fill 20" fill-rule="evenodd" clip-rule="evenodd" d="M1065.56 207.85C1064.62 207.85 1063.79 207.19 1063.6 206.236C1061.13 193.717 1056.87 179.871 1050.94 165.084C1049.58 161.691 1049.53 157.904 1050.82 154.423C1052.23 150.072 1055.96 146.846 1060.75 145.862C1065.6 144.867 1070.36 146.392 1073.47 149.942C1073.51 149.986 1073.55 150.032 1073.58 150.08C1077.48 155.412 1079.54 161.876 1081.55 168.127C1082.35 170.636 1083.11 173.005 1083.97 175.284C1084.36 176.317 1083.84 177.472 1082.81 177.863C1081.78 178.256 1080.62 177.736 1080.23 176.703C1079.33 174.325 1078.52 171.794 1077.74 169.346C1075.84 163.429 1073.88 157.311 1070.41 152.514C1068.25 150.105 1064.95 149.085 1061.56 149.78C1058.19 150.471 1055.58 152.697 1054.59 155.734C1053.63 158.354 1053.66 161.121 1054.65 163.595C1060.68 178.613 1065.01 192.7 1067.52 205.463C1067.74 206.546 1067.03 207.598 1065.95 207.812C1065.82 207.838 1065.69 207.85 1065.56 207.85" fill="black"/><path id="Fill 22" fill-rule="evenodd" clip-rule="evenodd" d="M1140.36 128.979C1137.18 114.987 1112.71 85.2178 1128.44 76.0098C1146.67 68.2188 1155.33 107.783 1162.26 120.174" fill="white"/><path id="Fill 24" fill-rule="evenodd" clip-rule="evenodd" d="M1140.35 130.979C1139.44 130.979 1138.62 130.349 1138.41 129.421C1137.48 125.365 1134.52 119.63 1131.39 113.559C1124.04 99.3283 1114.9 81.6163 1127.43 74.2833C1127.5 74.2413 1127.58 74.2033 1127.66 74.1703C1131.16 72.6743 1134.6 72.6143 1137.87 73.9923C1147.54 78.0633 1153.75 94.0403 1158.73 106.877C1160.71 111.959 1162.41 116.349 1164 119.198C1164.54 120.162 1164.2 121.381 1163.23 121.92C1162.27 122.459 1161.05 122.114 1160.51 121.15C1158.78 118.057 1157.03 113.547 1155 108.325C1150.54 96.8323 1144.43 81.0923 1136.32 77.6793C1134.08 76.7393 1131.8 76.7783 1129.35 77.7993C1120.26 83.2713 1128.06 98.3853 1134.94 111.725C1138.2 118.029 1141.27 123.983 1142.31 128.536C1142.55 129.613 1141.88 130.684 1140.8 130.929C1140.65 130.963 1140.5 130.979 1140.35 130.979" fill="black"/><path id="Fill 35" fill-rule="evenodd" clip-rule="evenodd" d="M1149.02 182.226L1101.57 198.477C1092.89 201.447 1083.45 196.824 1080.48 188.152L1046.85 89.9289C1043.88 81.2559 1048.5 71.8179 1057.18 68.8479L1104.63 52.5969C1113.3 49.6269 1122.74 54.2499 1125.71 62.9229L1159.35 161.146C1162.32 169.818 1157.69 179.256 1149.02 182.226" fill="white"/><g id="Group 39"><path id="Fill 37" fill-rule="evenodd" clip-rule="evenodd" d="M1110.02 53.6942C1108.43 53.6942 1106.83 53.9582 1105.28 54.4892L1057.82 70.7402C1054.13 72.0032 1051.16 74.6282 1049.44 78.1292C1047.73 81.6312 1047.48 85.5912 1048.74 89.2802L1082.38 187.503C1084.98 195.118 1093.3 199.192 1100.92 196.585L1148.38 180.334C1155.99 177.726 1160.06 169.409 1157.46 161.793L1123.82 63.5702C1122.56 59.8812 1119.93 56.9052 1116.43 55.1902C1114.4 54.1962 1112.22 53.6942 1110.02 53.6942M1096.2 201.373C1088.47 201.373 1081.23 196.513 1078.59 188.799L1044.96 90.5762C1043.35 85.8772 1043.67 80.8312 1045.85 76.3702C1048.04 71.9092 1051.83 68.5652 1056.53 66.9562L1103.98 50.7042C1108.69 49.0952 1113.73 49.4122 1118.19 51.5982C1122.65 53.7832 1126 57.5752 1127.61 62.2752L1161.24 160.497C1164.56 170.2 1159.37 180.796 1149.67 184.118L1149.02 182.226L1149.67 184.118L1102.21 200.369C1100.23 201.05 1098.2 201.373 1096.2 201.373" fill="black"/></g><path id="Fill 40" fill-rule="evenodd" clip-rule="evenodd" d="M1144.3 162.561L1093.24 180.047C1090.36 181.031 1087.24 179.499 1086.25 176.625L1055.22 85.9913C1054.23 83.1163 1055.76 79.9883 1058.64 79.0043L1109.7 61.5183C1112.58 60.5343 1115.7 62.0663 1116.69 64.9403L1147.72 155.574C1148.71 158.449 1147.18 161.577 1144.3 162.561" fill="#2945ff"/><path id="Fill 42" fill-rule="evenodd" clip-rule="evenodd" d="M1120.42 174.259C1126.75 175.849 1124.11 185.758 1117.82 183.983C1111.49 182.394 1114.13 172.484 1120.42 174.259" fill="#2945ff"/></g><path id="Fill 26" fill-rule="evenodd" clip-rule="evenodd" d="M851.509 344.86C831.622 346.751 785.729 345.982 749.599 345.982C713.469 345.982 729.764 381.911 727.194 417.763C724.272 456.644 755.042 490.142 794.248 489.233C817.719 488.72 841.207 487.427 864.838 485.182L851.509 344.86Z" fill="black"/></g><g id="torso"><g id="Group 30"><path id="Fill 28" fill-rule="evenodd" clip-rule="evenodd" d="M828.451 670.717C829.471 681.64 820.877 691.074 809.906 691.074H514.167C504.504 691.074 496.332 683.92 495.055 674.341L510.363 406.596C506.086 374.515 531.858 345.639 564.223 345.639L756.835 346.008C798.766 346.32 831.818 383.845 828.36 425.569L828.451 670.717Z" fill="#2945ff"/></g><path id="Fill 31" fill-rule="evenodd" clip-rule="evenodd" d="M741.39 346.008C717.175 244.035 537.136 316.125 654.051 401.243C656.149 402.948 659.197 402.783 661.11 400.869L674.976 387.003L688.796 373.183C695.414 379.615 709.022 392.829 715.685 399.304C725.88 409.815 742.211 358.983 741.39 346.008" fill="#2945ff"/><path id="Fill 33" fill-rule="evenodd" clip-rule="evenodd" d="M658.377 403.351C656.612 403.351 654.513 402.709 652.088 401.431C636.96 393.459 611.387 361.749 613.804 345.784C613.928 344.965 614.69 344.401 615.512 344.525C616.331 344.649 616.894 345.414 616.77 346.233C615.804 352.613 620.342 363.372 628.91 375.013C636.686 385.578 646.563 395.128 653.486 398.777C655.316 399.741 658.609 401.154 660.086 399.774C663.828 396.028 669.711 390.146 675.391 384.467L687.735 372.123C688.315 371.542 689.253 371.536 689.842 372.107L716.731 398.228C717.731 399.258 718.636 399.467 719.788 398.957C728.458 395.12 740.622 357.625 739.893 346.103C739.841 345.276 740.469 344.563 741.295 344.511C742.123 344.461 742.835 345.087 742.887 345.913C743.627 357.606 731.426 397.087 721.002 401.7C718.708 402.715 716.438 402.235 714.609 400.348L688.812 375.289L677.512 386.589C671.833 392.267 665.95 398.148 662.171 401.931C661.157 402.879 659.89 403.351 658.377 403.351" fill="black"/></g><g id="right"><g id="arm"><path id="Fill 44" fill-rule="evenodd" clip-rule="evenodd" d="M377.953 246.168L288.946 242.502C280.477 242.142 273.306 248.9 273.023 257.628C271.335 311.428 271.251 363.835 276.714 418.004C283.498 490.68 307.983 594.418 396.422 600.063C472.622 601.687 528.73 532.881 572.205 478.505L496.918 420.848C492.703 417.634 486.951 418.093 484.029 421.802C476.388 431.516 468.558 440.919 460.555 449.765C448.156 461.678 414.766 504.65 398.568 483.278C373.126 433.939 376.504 327.937 377.121 269.761C376.887 277.616 376.729 285.452 376.599 293.28C403.581 294.292 404.722 246.563 377.953 246.168" fill="white"/><path id="Fill 46" fill-rule="evenodd" clip-rule="evenodd" d="M288.301 244.488C284.999 244.488 281.856 245.727 279.395 248.011C276.696 250.515 275.144 253.953 275.023 257.693C273.56 304.308 272.853 359.785 278.704 417.803C283.108 464.973 292.874 503.816 307.734 533.269C328.187 573.809 358.07 595.61 396.55 598.067C471.982 599.651 528.17 530.369 569.368 478.851L495.703 422.435C492.387 419.908 487.855 420.177 485.601 423.039C477.395 433.471 469.687 442.652 462.038 451.107C462.007 451.141 461.974 451.175 461.941 451.207C460.026 453.047 457.576 455.668 454.74 458.703C442.388 471.921 423.74 491.894 408.8 491.126C404.109 490.884 400.131 488.65 396.974 484.486C396.905 484.394 396.843 484.296 396.79 484.194C374.35 440.675 374.089 355.563 374.815 294.184C374.673 293.902 374.594 293.583 374.6 293.246C374.756 283.851 374.917 276.589 375.123 269.701C375.155 268.605 376.072 267.734 377.162 267.761C378.259 267.783 379.134 268.685 379.122 269.782C379.078 273.886 379.021 278.229 378.961 282.772C378.925 285.514 378.887 288.338 378.852 291.246C385.665 290.751 389.621 286.685 391.788 283.177C396.4 275.716 396.684 264.711 392.465 257.011C390.29 253.042 386.002 248.287 377.924 248.167C377.906 248.167 377.888 248.167 377.871 248.166L288.864 244.5C288.676 244.492 288.488 244.488 288.301 244.488M399.062 602.091C398.17 602.091 397.278 602.081 396.38 602.062C356.299 599.505 325.301 576.967 304.162 535.071C289.076 505.169 279.172 465.845 274.723 418.189C268.85 359.955 269.557 304.312 271.025 257.565C271.18 252.748 273.187 248.314 276.674 245.079C280.064 241.934 284.451 240.309 289.031 240.503L378.011 244.168C385.802 244.292 392.181 248.17 395.972 255.089C400.84 263.973 400.512 276.67 395.191 285.28C391.433 291.361 385.672 294.846 378.804 295.255C378.143 353.458 378.545 439.869 400.265 482.204C402.688 485.341 405.549 486.953 409.006 487.131C422.069 487.822 440.692 467.878 451.817 455.972C454.669 452.921 457.134 450.282 459.118 448.372C466.69 440 474.325 430.904 482.458 420.565C486.056 415.997 493.087 415.41 498.131 419.257L573.421 476.917C573.848 477.244 574.125 477.729 574.191 478.263C574.256 478.797 574.103 479.334 573.767 479.754C532.416 531.474 475.954 602.088 399.062 602.091" fill="black"/><g id="fingers"><path id="Fill 49" fill-rule="evenodd" clip-rule="evenodd" d="M296.957 248.661C297.544 233.693 298.287 218.756 299.138 203.84C300.171 185.045 276.791 183.58 275.571 202.468C274.502 220.923 273.629 239.437 273.008 258.032" fill="white"/><path id="Fill 51" fill-rule="evenodd" clip-rule="evenodd" d="M273.009 260.032C272.987 260.032 272.964 260.032 272.941 260.031C271.837 259.994 270.972 259.069 271.009 257.965C271.601 240.217 272.465 221.506 273.574 202.353C274.092 194.323 279.294 186.484 288.312 187.027C295.124 187.434 301.716 193.377 301.135 203.95C300.225 219.889 299.512 234.539 298.955 248.74C298.912 249.844 297.969 250.706 296.878 250.66C295.775 250.616 294.915 249.687 294.958 248.583C295.516 234.358 296.231 219.685 297.141 203.726C297.599 195.397 292.761 191.3 288.073 191.02C283.394 190.741 278.106 194.243 277.567 202.597C276.46 221.705 275.598 240.383 275.007 258.099C274.971 259.18 274.083 260.032 273.009 260.032" fill="black"/><path id="Fill 53" fill-rule="evenodd" clip-rule="evenodd" d="M296.957 248.661C303.057 233.453 309.323 218.399 315.694 203.458C323.381 186.527 344.706 196.137 337.263 213.086C332.361 224.395 327.588 235.77 322.868 247.222" fill="white"/><path id="Fill 55" fill-rule="evenodd" clip-rule="evenodd" d="M296.957 250.662C296.709 250.662 296.457 250.616 296.213 250.518C295.188 250.107 294.69 248.942 295.101 247.917C300.838 233.612 306.973 218.813 313.854 202.674C317.141 195.436 324.741 190.068 332.952 193.734C339.182 196.516 343.292 204.333 339.095 213.891C334.638 224.173 329.934 235.328 324.717 247.984C324.296 249.005 323.127 249.492 322.106 249.071C321.085 248.65 320.598 247.481 321.019 246.46C326.245 233.781 330.958 222.605 335.429 212.291C338.727 204.78 335.61 199.302 331.321 197.387C327.047 195.478 320.903 196.823 317.516 204.286C310.664 220.356 304.54 235.129 298.814 249.406C298.5 250.187 297.75 250.662 296.957 250.662" fill="black"/></g></g><path id="Fill 57" fill-rule="evenodd" clip-rule="evenodd" d="M563.815 515.006C579.959 495.817 596.138 477.442 608.342 456.674C638.001 406.206 607.367 350.092 572.207 346.498C510.891 340.23 463.072 415.81 456.031 424.172L563.815 515.006Z" fill="black"/></g></g></g><g id="Hairstyle" transform="translate(569 275) scale(1 1)"><g id="Hairstyle/Side Combed"><path id="hair" fill-rule="evenodd" clip-rule="evenodd" d="M124.96 101.28H21V81.0433C21 53.9573 42.957 31.9993 70.043 31.9993H124.96V101.28Z" fill="black"/><g id="head"><path id="Fill 4" fill-rule="evenodd" clip-rule="evenodd" d="M131.922 107.102C131.922 115.515 125.102 122.335 116.689 122.335C108.276 122.335 101.456 115.515 101.456 107.102C101.456 98.6889 108.276 91.8689 116.689 91.8689C125.102 91.8689 131.922 98.6889 131.922 107.102" fill="white"/><path id="Fill 6" fill-rule="evenodd" clip-rule="evenodd" d="M116.689 93.869C109.392 93.869 103.456 99.805 103.456 107.102C103.456 114.399 109.392 120.335 116.689 120.335C123.986 120.335 129.922 114.399 129.922 107.102C129.922 99.805 123.986 93.869 116.689 93.869M116.689 124.335C107.187 124.335 99.4561 116.604 99.4561 107.102C99.4561 97.6 107.187 89.869 116.689 89.869C126.191 89.869 133.922 97.6 133.922 107.102C133.922 116.604 126.191 124.335 116.689 124.335" fill="black"/><path id="Fill 8" fill-rule="evenodd" clip-rule="evenodd" d="M65.5863 206.597V206.597C46.6293 206.597 29.1523 192.059 29.1523 174.702L45.2623 115.039C45.2623 97.682 40.6293 83.611 59.5863 83.611H79.5863C98.5433 83.611 93.9103 97.682 93.9103 115.039V175.169C93.9103 192.526 84.5433 206.597 65.5863 206.597" fill="white"/><path id="Fill 10" fill-rule="evenodd" clip-rule="evenodd" d="M31.1533 174.962C31.3263 190.779 47.3423 204.597 65.5863 204.597C84.9953 204.597 91.9103 189.396 91.9103 175.169V115.039C91.9103 111.992 92.0483 109.095 92.1823 106.294C92.5493 98.587 92.8673 91.932 89.6873 88.597C87.7713 86.588 84.4673 85.611 79.5863 85.611H59.5863C54.7053 85.611 51.4013 86.588 49.4853 88.597C46.3053 91.932 46.6223 98.587 46.9903 106.294C47.1233 109.095 47.2623 111.992 47.2623 115.039V115.305L31.1533 174.962ZM65.5863 208.597C45.1113 208.597 27.1523 192.758 27.1523 174.702V174.437L43.2613 114.775C43.2543 111.917 43.1223 109.156 42.9953 106.484C42.5833 97.86 42.2283 90.412 46.5903 85.837C49.3013 82.993 53.5523 81.611 59.5863 81.611H79.5863C85.6203 81.611 89.8713 82.993 92.5823 85.837C96.9443 90.412 96.5893 97.86 96.1773 106.484C96.0463 109.239 95.9103 112.087 95.9103 115.039V175.169C95.9103 195.476 84.0073 208.597 65.5863 208.597V208.597Z" fill="black"/><path id="Fill 12" fill-rule="evenodd" clip-rule="evenodd" d="M77.1859 154.529C59.7179 154.529 43.9559 144.169 37.0289 128.137L36.3789 126.632C31.7479 115.911 31.5669 104.029 35.8729 93.1729C40.1789 82.3169 48.4539 73.7869 59.1739 69.1549C64.6979 66.7689 70.5259 65.5589 76.4949 65.5589C93.9619 65.5589 109.725 75.9189 116.651 91.9509L117.301 93.4559C121.933 104.177 122.113 116.06 117.808 126.915C113.502 137.771 105.227 146.301 94.5059 150.933C88.9819 153.319 83.1549 154.529 77.1859 154.529" fill="white"/><path id="Fill 14" fill-rule="evenodd" clip-rule="evenodd" d="M76.4944 63.5592H76.4934C70.2504 63.5592 64.1564 64.8242 58.3804 67.3192C47.1694 72.1632 38.5154 81.0822 34.0134 92.4352C29.5104 103.788 29.6984 116.214 34.5424 127.425L35.1924 128.93C42.4364 145.696 58.9194 156.529 77.1854 156.529C83.4284 156.529 89.5234 155.264 95.2984 152.768C118.441 142.769 129.135 115.806 119.136 92.6632L118.486 91.1582C111.243 74.3922 94.7604 63.5592 76.4944 63.5592M76.4944 67.5592C92.6364 67.5592 108.005 76.9832 114.814 92.7442L115.464 94.2492C124.603 115.402 114.864 139.957 93.7124 149.097C88.3204 151.426 82.7074 152.529 77.1854 152.529C61.0424 152.529 45.6734 143.104 38.8644 127.344L38.2144 125.839C29.0754 104.686 38.8144 80.1302 59.9674 70.9912C65.3584 68.6622 70.9714 67.5592 76.4944 67.5592" fill="black"/><path id="Fill 16" fill-rule="evenodd" clip-rule="evenodd" d="M36.233 122.335C27.82 122.335 21 115.515 21 107.102C21 98.6888 27.82 91.8688 36.233 91.8688C37.285 91.8688 38.311 91.9758 39.303 92.1788" fill="white"/><g id="Group 20"><path id="Fill 18" fill-rule="evenodd" clip-rule="evenodd" d="M36.233 124.335C26.731 124.335 19 116.604 19 107.102C19 97.5998 26.731 89.8688 36.233 89.8688C37.4 89.8688 38.568 89.9868 39.704 90.2188C40.786 90.4408 41.484 91.4968 41.263 92.5798C41.041 93.6618 39.984 94.3588 38.902 94.1378C38.03 93.9598 37.132 93.8688 36.233 93.8688C28.936 93.8688 23 99.8048 23 107.102C23 114.399 28.936 120.335 36.233 120.335C37.337 120.335 38.233 121.231 38.233 122.335C38.233 123.439 37.337 124.335 36.233 124.335" fill="black"/></g></g><circle id="Oval" cx="46" cy="82" r="14" fill="black"/><rect id="Rectangle" x="53" y="57" width="55" height="18" fill="black"/><path id="Fill 9" fill-rule="evenodd" clip-rule="evenodd" d="M83.1474 123.992H90.7084C92.7934 123.992 94.3374 120.961 93.8714 117.782L90.6874 96.0426C89.9484 90.9976 85.4234 90.7156 84.4294 95.6516L80.0524 117.391C79.3944 120.662 80.9554 123.992 83.1474 123.992" fill="#2945ff"/></g></g><g id="Face" transform="translate(589 365) scale(1 1)"><g id="Face/Long Beard"><path id="Shape" fill-rule="evenodd" clip-rule="evenodd" d="M97.7206 -1.00018C100.786 -1.00018 103.283 1.42591 103.397 4.46288L103.402 4.68082L103.402 29.8031L103.492 30.5953C104.568 40.4566 113.967 139.069 59.5288 139.069C4.40812 139.069 14.149 44.1395 15.5163 32.748L15.6568 31.6341L15.6567 4.68082C15.6567 1.54282 18.1997 -1.00018 21.3377 -1.00018C24.4747 -1.00018 27.0187 1.54282 27.0187 4.68082L27.0188 27.2231C27.0188 32.3859 30.5671 39.6387 36.1336 46.1009L36.0275 45.2287C35.3636 39.396 35.5924 33.2444 38.3632 29.381C40.2642 26.729 43.1452 25.328 46.6932 25.328C53.0238 25.328 56.7505 26.858 59.6737 28.2618L61.513 29.1553C64.55 30.5959 66.7522 31.1527 72.8138 28.3728L73.1822 28.202C80.1352 24.944 84.3572 24.452 87.2972 26.56C91.1004 29.2858 90.7022 34.8147 89.8623 42.4506C91.9761 37.6351 92.2022 33.3956 92.1444 31.2633C92.093 31.0021 92.0597 30.7344 92.0463 30.4614L92.0396 30.1868V4.68082C92.0396 1.54282 94.5836 -1.00018 97.7206 -1.00018ZM76.0623 33.4798L75.7282 33.635C67.2649 37.6018 63.3012 36.6361 58.6587 34.4376L57.442 33.8475C54.8168 32.5708 51.9694 31.328 46.6932 31.328C44.6172 31.328 43.7572 32.155 43.2392 32.876C40.5927 36.5646 41.7683 45.8404 43.6241 53.245C46.4541 55.4424 49.5196 57.3173 52.7163 58.673L59.376 52.0143C61.412 49.9793 64.712 49.9793 66.747 52.0143L73.3818 58.6491C77.3178 56.6817 80.437 54.4612 82.9066 52.1473C83.0649 49.5589 83.315 47.0836 83.5666 44.7839L83.9949 40.8814C84.394 37.0487 84.7506 32.3698 83.8722 31.4957L83.7889 31.4283C83.6359 31.3461 82.1056 30.6965 76.0623 33.4798V33.4798Z" fill="black"/></g></g><g id="Expression" transform="translate(617 356) scale(1 1)"><g id="Expression/Laughing"><path id="Path" fill-rule="evenodd" clip-rule="evenodd" d="M37.018 61.608C26.54 61.608 22.625 53.545 22.02 49.281C21.938 48.708 22.109 48.127 22.489 47.689C22.869 47.251 23.42 47 24 47H50.036C50.616 47 51.167 47.251 51.547 47.689C51.927 48.127 52.098 48.708 52.016 49.281L51.9612 49.6253C51.1995 53.9638 47.2203 61.608 37.018 61.608Z" fill="black"/><path id="Fill 7" fill-rule="evenodd" clip-rule="evenodd" d="M56.5038 22.9646C56.1028 22.9646 55.6978 22.8446 55.3458 22.5936L46.5388 16.3276C45.9988 15.9426 45.6838 15.3156 45.6988 14.6536C45.7128 13.9906 46.0558 13.3786 46.6118 13.0186L55.4188 7.32063C56.3468 6.72063 57.5848 6.98663 58.1848 7.91363C58.7848 8.84163 58.5188 10.0796 57.5918 10.6796L51.2588 14.7766L57.6648 19.3346C58.5648 19.9756 58.7758 21.2236 58.1348 22.1236C57.7448 22.6726 57.1288 22.9646 56.5038 22.9646" fill="black"/><path id="Fill 7_2" fill-rule="evenodd" clip-rule="evenodd" d="M18.7003 22.9646C19.1013 22.9646 19.5063 22.8446 19.8583 22.5936L28.6653 16.3276C29.2053 15.9426 29.5203 15.3156 29.5053 14.6536C29.4913 13.9906 29.1483 13.3786 28.5923 13.0186L19.7853 7.32063C18.8573 6.72063 17.6193 6.98663 17.0193 7.91363C16.4193 8.84163 16.6853 10.0796 17.6123 10.6796L23.9453 14.7766L17.5393 19.3346C16.6393 19.9756 16.4283 21.2236 17.0693 22.1236C17.4593 22.6726 18.0753 22.9646 18.7003 22.9646" fill="black"/></g></g><g id="Glasses" transform="translate(598 343) scale(1 1)"><g id="Glasses/Mask"><ellipse id="Oval" cx="57.001" cy="56" rx="27" ry="28" fill="white"/><path id="Shape" fill-rule="evenodd" clip-rule="evenodd" d="M11.9567 22.2534L36.3225 35.9467C36.3225 35.9467 39.701 35.9467 44.9217 32.6253C50.1424 29.304 52.4379 27.0475 56.6105 27.0475C61.7712 27.0475 66.8169 31.2989 70.754 33.9204C75.2409 36.908 76.9809 35.9467 76.9809 35.9467L87.9475 24.4399C88.7095 23.6399 89.9755 23.6099 90.7745 24.3719C91.5745 25.1339 91.6055 26.3999 90.8435 27.1989L79.5078 39.095C81.7178 42.2969 83.2742 45.9829 83.9827 49.9587L94.3402 51.0366C95.4382 51.1506 96.2362 52.1336 96.1222 53.2326C96.0152 54.2606 95.1462 55.0256 94.1352 55.0256C94.0662 55.0256 93.9962 55.0216 93.9262 55.0146L84.4014 54.023C84.4095 54.2979 84.4135 54.5737 84.4135 54.8505V57.7705C84.4135 73.1005 71.9415 85.5735 56.6105 85.5735C41.2795 85.5735 28.8075 73.1005 28.8075 57.7705L28.807 56.869L7.00114 57.0709C5.90514 57.0709 5.01214 56.1879 5.00106 55.0889C4.99114 53.9849 5.87814 53.0809 6.98314 53.0709L28.8775 52.868C29.2409 47.7334 31.0047 42.9795 33.7882 38.987L10.0117 25.7484C9.04574 25.2104 8.69974 23.9924 9.23674 23.0274C9.77374 22.0624 10.9927 21.7154 11.9567 22.2534ZM56.6105 31.0475C52.866 31.0475 49.3207 34.9166 46.1656 36.4637C38.2619 40.3394 32.8075 45.47 32.8075 54.8505V57.7705C32.8075 70.7642 43.273 81.3597 56.2175 81.5703L56.6105 81.5735C69.7355 81.5735 80.4135 70.8955 80.4135 57.7705V54.8505C80.4135 54.063 80.3751 53.2843 80.3 52.5162L80.2628 52.163C80.2472 52.0811 80.2366 51.9977 80.2313 51.9131C79.3439 44.7271 75.2409 41.5233 69.4109 37.79C65.7124 35.4216 61.3189 31.0475 56.6105 31.0475ZM49.4617 61.8991L49.865 62.2174C51.8712 63.7341 60.7454 69.6424 68.3747 62.0131C69.1557 61.2321 70.4217 61.2321 71.2027 62.0131C71.9837 62.7941 71.9837 64.0601 71.2027 64.8411C67.5267 68.5181 63.5007 69.8281 59.7237 69.8281C54.3787 69.8281 49.5327 67.2051 46.8777 64.9521C46.0347 64.2381 45.9317 62.9751 46.6467 62.1331C47.3597 61.2921 48.6197 61.1881 49.4617 61.8991ZM49.8708 43.1413C51.8888 44.6651 60.7526 50.5547 68.3747 42.9326C69.1557 42.1516 70.4217 42.1516 71.2027 42.9326C71.9837 43.7136 71.9837 44.9796 71.2027 45.7606C67.5267 49.4376 63.5007 50.7476 59.7237 50.7476C54.3787 50.7476 49.5327 48.1246 46.8777 45.8716C46.0347 45.1566 45.9317 43.8946 46.6467 43.0526C47.325 42.2536 48.4961 42.1198 49.3334 42.7189L49.8708 43.1413Z" fill="black"/></g></g></g></g></g></svg>